<?xml version="1.0" standalone="no"?>
<!DOCTYPE svg PUBLIC "-//W3C//DTD SVG 20010904//EN"
 "http://www.w3.org/TR/2001/REC-SVG-20010904/DTD/svg10.dtd">
<svg version="1.0" xmlns="http://www.w3.org/2000/svg"
 width="415.000000pt" height="415.000000pt" viewBox="0 0 415.000000 415.000000"
 preserveAspectRatio="xMidYMid meet">

<g transform="translate(0.000000,415.000000) scale(0.100000,-0.100000)"
fill="#000000" stroke="none">
<path d="M2562 3819 c-137 -27 -256 -93 -368 -204 -79 -78 -98 -104 -139 -188
-36 -74 -51 -120 -63 -191 -8 -51 -12 -105 -8 -120 6 -23 11 -26 49 -26 183 0
406 157 525 370 49 89 75 184 76 280 1 95 2 94 -72 79z"/>
<path d="M2437 3074 c-38 -8 -149 -42 -247 -75 -205 -69 -187 -69 -382 1 -220
79 -338 95 -480 65 -152 -32 -269 -97 -389 -215 -247 -245 -324 -614 -223
-1069 47 -209 145 -442 261 -621 136 -209 274 -355 389 -411 62 -31 77 -34
149 -33 80 1 102 7 301 77 175 62 301 57 514 -21 119 -43 130 -45 235 -46 99
-1 116 2 166 25 138 65 369 348 480 589 49 106 84 203 73 207 -38 13 -148 87
-201 137 -235 218 -291 576 -131 844 39 66 145 175 210 218 l48 32 -35 45
c-79 104 -231 196 -390 238 -106 27 -259 33 -348 13z"/>
</g>
</svg>
